<svg xmlns="http://www.w3.org/2000/svg" height="512" viewBox="0 -42 512.001 512" width="512"><path d="M512 34.504V14.77C512 6.613 505.387 0 497.23 0h-44.304a14.765 14.765 0 00-13.492 8.762 14.76 14.76 0 002.511 15.886l13.72 15.243-177.267 94.543-71.03-71.032a14.773 14.773 0 00-16.306-3.113L8.91 139.06c-7.484 3.238-10.93 11.93-7.691 19.418 3.191 7.386 12.023 10.89 19.418 7.695l172.941-74.79 71.672 71.677a14.764 14.764 0 0017.395 2.586L476.023 62.512l10.23 11.367c4.044 4.496 10.618 6.078 16.27 3.91A14.77 14.77 0 00512 64V34.605v-.101zm0 0" data-original="#000000" class="active-path" data-old_color="#000000" fill="#FFF"/><path d="M126.035 167.18v261.125h66.953V138.387c-.652.18-1.293.398-1.925.672zm0 0M319.016 428.305h66.953V155.832l-66.953 35.707zm0 0M222.527 157.328v270.977h66.953V207.293l-11.082 5.91zm0 0M.004 231.383v182.152c0 8.156 6.613 14.77 14.77 14.77h81.722V179.953L8.91 217.828a14.765 14.765 0 00-8.906 13.555zm0 0M504.832 100.566a14.776 14.776 0 00-14.55-.367l-74.77 39.88v288.226h81.718c8.16 0 14.77-6.614 14.77-14.77V113.23c0-5.187-2.723-9.996-7.168-12.664zm0 0" data-original="#000000" class="active-path" data-old_color="#000000" fill="#FFF"/></svg>